<?xml version="1.0" standalone="no"?>
<!DOCTYPE svg PUBLIC "-//W3C//DTD SVG 20010904//EN"
 "http://www.w3.org/TR/2001/REC-SVG-20010904/DTD/svg10.dtd">
<svg version="1.0" xmlns="http://www.w3.org/2000/svg"
 width="512.000000pt" height="512.000000pt" viewBox="0 0 512.000000 512.000000"
 preserveAspectRatio="xMidYMid meet">
<metadata>
Created by potrace 1.11, written by Peter Selinger 2001-2013
</metadata>
<g transform="translate(0.000000,512.000000) scale(0.100000,-0.100000)"
fill="#000000" stroke="none">
<path d="M2395 4049 c-456 -63 -846 -341 -1049 -747 -67 -134 -126 -344 -126
-449 0 -70 14 -44 49 92 81 315 270 547 564 696 177 90 354 130 572 130 259 1
487 -66 695 -203 83 -55 220 -186 275 -263 99 -139 164 -316 180 -485 14 -147
-27 -344 -101 -491 -59 -119 -222 -316 -242 -294 -460 517 -732 827 -732 834
0 5 55 58 123 117 67 59 123 111 125 115 2 5 -18 31 -44 59 l-47 51 -39 -38
c-34 -33 -44 -37 -100 -41 -53 -3 -68 0 -97 20 -19 12 -41 38 -50 55 -9 18
-20 33 -24 33 -5 0 -31 -19 -58 -42 -46 -39 -51 -40 -66 -25 -15 15 -20 12
-72 -33 -158 -138 -155 -134 -143 -157 10 -19 0 -31 -118 -134 -72 -62 -130
-117 -130 -122 0 -9 228 -271 241 -275 4 -2 68 49 140 113 127 111 133 115
150 98 9 -10 173 -193 363 -408 l347 -389 -33 -17 c-56 -29 -199 -76 -288 -95
-119 -26 -391 -26 -510 -1 -72 16 -179 47 -241 72 -12 4 -42 -29 -119 -132
-57 -76 -162 -214 -232 -307 -71 -92 -127 -170 -125 -172 16 -16 192 -144 198
-144 4 0 78 93 164 207 101 133 163 207 174 206 9 -1 59 -18 111 -38 150 -59
297 -85 475 -86 229 0 420 44 611 142 l94 48 202 -227 c111 -125 205 -231 209
-236 7 -7 219 171 219 184 0 3 -90 106 -200 229 l-199 224 51 56 c92 100 169
213 229 336 104 213 144 404 136 640 -9 262 -80 482 -223 697 -198 298 -508
507 -857 579 -118 24 -326 33 -432 18z"/>
</g>
</svg>
